/* XPM */
static char * close_xpm[] = {
"24 24 14 1",
" 	c #444444",
".	c #BABABA",
"+	c #BFBFBF",
"@	c #515151",
"#	c #525252",
"$	c #B9B9B9",
"%	c #DDDDDD",
"&	c #C3C3C3",
"*	c #BEBEBE",
"=	c #505050",
"-	c #C2C2C2",
";	c #C5C5C5",
">	c #535353",
",	c #B8B8B8",
"                        ",
"                        ",
"                        ",
"                        ",
"                        ",
"                        ",
"                        ",
"                        ",
"        .+@  #+$        ",
"        +%&@@&%*        ",
"        @&%&&%&@        ",
"         =-%%;>         ",
"         =-%%;>         ",
"        @&%&&%&@        ",
"        +%&@@&%+        ",
"        $+#  @+,        ",
"                        ",
"                        ",
"                        ",
"                        ",
"                        ",
"                        ",
"                        ",
"                        "};
