/* XPM */
static char * max_xpm[] = {
"24 24 5 1",
" 	c #444444",
".	c #BABABA",
"+	c #DDDDDD",
"@	c #4F4F4F",
"#	c #B9B9B9",
"                        ",
"                        ",
"                        ",
"                        ",
"                        ",
"                        ",
"                        ",
"                        ",
"        .++++++.        ",
"        ++++++++        ",
"        ++@  @++        ",
"        ++    ++        ",
"        ++    ++        ",
"        ++@  @++        ",
"        ++++++++        ",
"        .++++++#        ",
"                        ",
"                        ",
"                        ",
"                        ",
"                        ",
"                        ",
"                        ",
"                        "};
